# xmcd
#
# Track frame offsets:
#	150
#	17212
#	31930
#	57675
#	82992
#	99587
#	121162
#	137192
#	164972
#	182907
#	202090
#	222910
#	230795
#	244355
#	261757
#
# Disc length: 3799 seconds
#
# Revision: 1
# Processed by: cddbd v1.5.1PL0 Copyright (c) Steve Scherf et al.
# Submitted via: audiograbber 1.82.02
#
DISCID=e80ed50f
DTITLE=Spoonful - Live at the Clifton Hill Hotel
DYEAR=2003
DGENRE=Blues
TTITLE0=I thank you
TTITLE1=Steppin' out
TTITLE2=Ain't that a lotta love
TTITLE3=Goin' down
TTITLE4=It ain't right
TTITLE5=Monkey man
TTITLE6=Castles made of sand
TTITLE7=Evil
TTITLE8=One late night
TTITLE9=Crazy mama
TTITLE10=Fire
TTITLE11=Lordo's Nacho's
TTITLE12=My babe
TTITLE13=That will never do
TTITLE14=Hideaway
EXTD=Recorded live at the Clifton Hill Hotel on the 20th of March 2003.
EXTT0=
EXTT1=
EXTT2=
EXTT3=
EXTT4=
EXTT5=
EXTT6=
EXTT7=
EXTT8=
EXTT9=
EXTT10=
EXTT11=
EXTT12=
EXTT13=
EXTT14=
PLAYORDER=
